<svg width="147" height="40" viewBox="0 0 147 40" fill="none" xmlns="http://www.w3.org/2000/svg">
<rect x="1" y="0.5" width="145" height="39" rx="9.5" stroke="#FFD700" stroke-dasharray="8 8"/>
<path d="M9.256 17.496C9.256 15.264 11.056 13.752 13.738 13.752C16.222 13.752 17.824 15.138 17.968 17.388H16.186C16.096 16.092 15.178 15.336 13.72 15.336C12.082 15.336 11.02 16.164 11.02 17.442C11.02 18.486 11.614 19.116 12.838 19.404L14.98 19.908C17.104 20.394 18.184 21.546 18.184 23.382C18.184 25.722 16.366 27.216 13.594 27.216C10.948 27.216 9.184 25.83 9.076 23.598H10.876C10.912 24.84 11.956 25.632 13.594 25.632C15.322 25.632 16.42 24.822 16.42 23.526C16.42 22.5 15.862 21.852 14.62 21.564L12.478 21.078C10.354 20.592 9.256 19.368 9.256 17.496ZM22.5967 27H20.9047V19.62H19.1767V18.198H20.9047V15.444H22.5967V18.198H24.3247V19.62H22.5967V27ZM28.3117 27.216C26.4217 27.216 25.3057 26.154 25.3057 24.552C25.3057 22.932 26.5117 21.924 28.5817 21.762L31.3537 21.546V21.294C31.3537 19.818 30.4717 19.296 29.2837 19.296C27.8617 19.296 27.0517 19.926 27.0517 20.988H25.5757C25.5757 19.152 27.0877 17.946 29.3557 17.946C31.5337 17.946 33.0097 19.098 33.0097 21.474V27H31.5697L31.3897 25.578C30.9397 26.586 29.7337 27.216 28.3117 27.216ZM28.7977 25.902C30.3997 25.902 31.3717 24.858 31.3717 23.202V22.734L29.1217 22.914C27.6277 23.058 27.0157 23.634 27.0157 24.498C27.0157 25.434 27.6997 25.902 28.7977 25.902ZM34.296 30.942V29.556H35.43C36.24 29.556 36.888 29.43 37.302 28.314L37.608 27.468L34.062 18.198H35.844L38.4 25.29L41.01 18.198H42.756L38.598 28.98C38.004 30.492 37.122 31.122 35.772 31.122C35.214 31.122 34.746 31.05 34.296 30.942ZM54.7167 27.198C51.0087 27.198 48.5427 24.534 48.5427 20.502C48.5427 16.488 51.0807 13.77 54.8067 13.77C57.7407 13.77 59.9907 15.516 60.4767 18.18H58.5867C58.1007 16.488 56.6427 15.462 54.7527 15.462C52.1247 15.462 50.3967 17.442 50.3967 20.484C50.3967 23.526 52.1247 25.506 54.7527 25.506C56.6607 25.506 58.1727 24.48 58.6587 22.878H60.5307C59.9727 25.47 57.6507 27.198 54.7167 27.198ZM61.8296 22.59C61.8296 19.872 63.7736 17.964 66.4196 17.964C69.0476 17.964 70.9916 19.872 70.9916 22.59C70.9916 25.308 69.0476 27.216 66.4196 27.216C63.7736 27.216 61.8296 25.308 61.8296 22.59ZM63.5396 22.59C63.5396 24.426 64.7096 25.704 66.4196 25.704C68.1116 25.704 69.2996 24.426 69.2996 22.59C69.2996 20.754 68.1116 19.476 66.4196 19.476C64.7096 19.476 63.5396 20.754 63.5396 22.59ZM74.5566 27H72.8646V18.198H74.3946L74.5746 19.548C75.1326 18.54 76.2486 17.946 77.4906 17.946C79.8126 17.946 80.8746 19.368 80.8746 21.618V27H79.1826V21.996C79.1826 20.214 78.3546 19.494 77.0586 19.494C75.4746 19.494 74.5566 20.628 74.5566 22.338V27ZM84.9101 27H83.2181V18.198H84.7481L84.9281 19.548C85.4861 18.54 86.6021 17.946 87.8441 17.946C90.1661 17.946 91.2281 19.368 91.2281 21.618V27H89.5361V21.996C89.5361 20.214 88.7081 19.494 87.4121 19.494C85.8281 19.494 84.9101 20.628 84.9101 22.338V27ZM97.3697 27.216C94.7777 27.216 92.9957 25.344 92.9957 22.608C92.9957 19.854 94.7417 17.946 97.2977 17.946C99.7997 17.946 101.438 19.674 101.438 22.284V22.914L94.6337 22.932C94.7597 24.786 95.7317 25.812 97.4057 25.812C98.7197 25.812 99.5837 25.272 99.8717 24.264H101.456C101.024 26.154 99.5477 27.216 97.3697 27.216ZM97.2977 19.368C95.8217 19.368 94.8857 20.25 94.6697 21.798H99.7457C99.7457 20.34 98.7917 19.368 97.2977 19.368ZM102.752 22.608C102.752 19.854 104.498 17.946 107.072 17.946C109.286 17.946 110.834 19.206 111.14 21.168H109.448C109.16 20.052 108.26 19.458 107.126 19.458C105.524 19.458 104.426 20.682 104.426 22.59C104.426 24.48 105.452 25.704 107.054 25.704C108.26 25.704 109.16 25.074 109.466 24.03H111.158C110.816 25.938 109.178 27.216 107.054 27.216C104.462 27.216 102.752 25.38 102.752 22.608ZM115.427 27H113.735V19.62H112.007V18.198H113.735V15.444H115.427V18.198H117.155V19.62H115.427V27ZM122.383 27.216C119.791 27.216 118.009 25.344 118.009 22.608C118.009 19.854 119.755 17.946 122.311 17.946C124.813 17.946 126.451 19.674 126.451 22.284V22.914L119.647 22.932C119.773 24.786 120.745 25.812 122.419 25.812C123.733 25.812 124.597 25.272 124.885 24.264H126.469C126.037 26.154 124.561 27.216 122.383 27.216ZM122.311 19.368C120.835 19.368 119.899 20.25 119.683 21.798H124.759C124.759 20.34 123.805 19.368 122.311 19.368ZM131.869 27.216C129.313 27.216 127.765 25.308 127.765 22.626C127.765 19.926 129.331 17.946 131.941 17.946C133.291 17.946 134.425 18.54 135.019 19.62V13.752H136.693V27H135.181L135.037 25.398C134.461 26.604 133.273 27.216 131.869 27.216ZM132.211 25.686C133.939 25.686 135.001 24.408 135.001 22.572C135.001 20.772 133.939 19.476 132.211 19.476C130.483 19.476 129.475 20.772 129.475 22.572C129.475 24.39 130.483 25.686 132.211 25.686Z" fill="#222222"/>
</svg>
