<svg width="140" height="40" viewBox="0 0 140 40" fill="none" xmlns="http://www.w3.org/2000/svg">
<rect x="0.5" y="0.5" width="139" height="39" rx="9.5" stroke="#2563EB" stroke-dasharray="8 8"/>
<path d="M21.248 20.484C21.248 24.444 18.656 27.216 14.966 27.216C11.294 27.216 8.738 24.444 8.738 20.484C8.738 16.542 11.312 13.752 14.984 13.752C18.674 13.752 21.248 16.524 21.248 20.484ZM19.394 20.484C19.394 17.46 17.63 15.462 14.984 15.462C12.338 15.462 10.592 17.46 10.592 20.484C10.592 23.508 12.338 25.524 14.984 25.524C17.63 25.524 19.394 23.49 19.394 20.484ZM29.3002 18.198H30.9742V27H29.4622L29.2822 25.668C28.7782 26.586 27.6082 27.216 26.3122 27.216C24.2602 27.216 23.1082 25.83 23.1082 23.67V18.198H24.8002V23.112C24.8002 25.002 25.6102 25.722 26.9062 25.722C28.4542 25.722 29.3002 24.732 29.3002 22.842V18.198ZM38.4691 18.126V19.674H37.7131C36.1111 19.674 35.1211 20.646 35.1211 22.338V27H33.4291V18.216H35.0131L35.1211 19.548C35.4811 18.63 36.3631 18.018 37.5691 18.018C37.8751 18.018 38.1271 18.054 38.4691 18.126ZM50.6659 27.198C46.9579 27.198 44.4919 24.534 44.4919 20.502C44.4919 16.488 47.0299 13.77 50.7559 13.77C53.6899 13.77 55.9399 15.516 56.4259 18.18H54.5359C54.0499 16.488 52.5919 15.462 50.7019 15.462C48.0739 15.462 46.3459 17.442 46.3459 20.484C46.3459 23.526 48.0739 25.506 50.7019 25.506C52.6099 25.506 54.1219 24.48 54.6079 22.878H56.4799C55.9219 25.47 53.5999 27.198 50.6659 27.198ZM64.4389 18.198H66.1129V27H64.6009L64.4209 25.668C63.9169 26.586 62.7469 27.216 61.4509 27.216C59.3989 27.216 58.2469 25.83 58.2469 23.67V18.198H59.9389V23.112C59.9389 25.002 60.7489 25.722 62.0449 25.722C63.5929 25.722 64.4389 24.732 64.4389 22.842V18.198ZM67.672 24.444H69.292C69.292 25.344 69.976 25.884 71.092 25.884C72.28 25.884 72.964 25.398 72.964 24.588C72.964 23.994 72.676 23.634 71.758 23.4L70.21 23.04C68.644 22.662 67.906 21.888 67.906 20.592C67.906 18.972 69.274 17.946 71.218 17.946C73.144 17.946 74.404 19.026 74.44 20.7H72.82C72.784 19.818 72.19 19.26 71.164 19.26C70.102 19.26 69.508 19.728 69.508 20.538C69.508 21.132 69.94 21.528 70.804 21.744L72.352 22.122C73.846 22.482 74.584 23.166 74.584 24.48C74.584 26.154 73.144 27.216 71.056 27.216C68.986 27.216 67.672 26.118 67.672 24.444ZM78.9443 27H77.2523V19.62H75.5243V18.198H77.2523V15.444H78.9443V18.198H80.6723V19.62H78.9443V27ZM81.5269 22.59C81.5269 19.872 83.4709 17.964 86.1169 17.964C88.7449 17.964 90.6889 19.872 90.6889 22.59C90.6889 25.308 88.7449 27.216 86.1169 27.216C83.4709 27.216 81.5269 25.308 81.5269 22.59ZM83.2369 22.59C83.2369 24.426 84.4069 25.704 86.1169 25.704C87.8089 25.704 88.9969 24.426 88.9969 22.59C88.9969 20.754 87.8089 19.476 86.1169 19.476C84.4069 19.476 83.2369 20.754 83.2369 22.59ZM94.2539 27H92.5619V18.198H94.0739L94.2359 19.35C94.6859 18.522 95.6219 17.946 96.8639 17.946C98.2319 17.946 99.2039 18.63 99.6539 19.728C100.068 18.63 101.13 17.946 102.498 17.946C104.514 17.946 105.738 19.206 105.738 21.24V27H104.082V21.654C104.082 20.268 103.308 19.476 102.12 19.476C100.842 19.476 99.9959 20.376 99.9959 21.78V27H98.3219V21.636C98.3219 20.25 97.5659 19.494 96.3779 19.494C95.0999 19.494 94.2539 20.376 94.2539 21.78V27ZM111.881 27.216C109.289 27.216 107.507 25.344 107.507 22.608C107.507 19.854 109.253 17.946 111.809 17.946C114.311 17.946 115.949 19.674 115.949 22.284V22.914L109.145 22.932C109.271 24.786 110.243 25.812 111.917 25.812C113.231 25.812 114.095 25.272 114.383 24.264H115.967C115.535 26.154 114.059 27.216 111.881 27.216ZM111.809 19.368C110.333 19.368 109.397 20.25 109.181 21.798H114.257C114.257 20.34 113.303 19.368 111.809 19.368ZM122.879 18.126V19.674H122.123C120.521 19.674 119.531 20.646 119.531 22.338V27H117.839V18.216H119.423L119.531 19.548C119.891 18.63 120.773 18.018 121.979 18.018C122.285 18.018 122.537 18.054 122.879 18.126ZM123.746 24.444H125.366C125.366 25.344 126.05 25.884 127.166 25.884C128.354 25.884 129.038 25.398 129.038 24.588C129.038 23.994 128.75 23.634 127.832 23.4L126.284 23.04C124.718 22.662 123.98 21.888 123.98 20.592C123.98 18.972 125.348 17.946 127.292 17.946C129.218 17.946 130.478 19.026 130.514 20.7H128.894C128.858 19.818 128.264 19.26 127.238 19.26C126.176 19.26 125.582 19.728 125.582 20.538C125.582 21.132 126.014 21.528 126.878 21.744L128.426 22.122C129.92 22.482 130.658 23.166 130.658 24.48C130.658 26.154 129.218 27.216 127.13 27.216C125.06 27.216 123.746 26.118 123.746 24.444Z" fill="#222222"/>
</svg>
