<svg width="111" height="114" viewBox="0 0 111 114" fill="none" xmlns="http://www.w3.org/2000/svg">
<path d="M73.4532 89.019H88.2062C88.0677 90.6815 87.5482 92.2747 86.6997 93.6948C85.8512 95.1148 84.6911 96.3271 83.2885 97.2449C79.9812 99.4789 76.0506 100.605 72.0679 100.449C69.6091 100.553 67.1503 100.085 64.9165 99.0979C62.6655 98.0935 60.6742 96.5868 59.1158 94.6992C56.8647 91.9803 55.4102 88.5514 54.7695 84.3952L41.3499 90.6469C41.6269 91.6167 41.9559 92.5691 42.3368 93.5043C43.9299 97.5047 46.3541 101.124 49.419 104.137C55.618 110.216 63.4793 113.246 73.0549 113.264C77.4185 113.333 81.7474 112.554 85.8166 111.012C89.2624 109.731 92.3793 107.687 94.942 105.038C97.193 102.648 98.9766 99.8599 100.189 96.812C101.383 93.8333 101.989 90.6469 101.989 87.4258V76.3252H73.4532V89.019Z" fill="white"/>
<path d="M87.0114 69.5542L100.466 64.8785C100.258 64.3763 100.05 63.8741 99.825 63.3892L86.9248 69.3984C86.9594 69.4503 86.9768 69.5023 87.0114 69.5542Z" fill="white"/>
<path d="M54.3714 78.9574C54.3714 77.9011 54.4407 76.8274 54.5965 75.7883C52.8476 75.9788 51.0641 76.0827 49.2633 76.0827C47.272 76.0827 45.246 75.9615 43.2028 75.719C42.2504 75.6151 41.3846 75.3727 40.5881 74.9917C40.2591 76.9486 40.1032 78.9228 40.1032 80.9143C39.9994 84.2047 40.4149 87.495 41.3327 90.6468L54.7523 84.3952C54.5099 82.698 54.3714 80.8797 54.3714 78.9574Z" fill="white"/>
<path d="M89.6609 52.167C89.4531 52.8597 89.1415 53.5697 88.7086 54.2451C86.6653 57.5701 84.1892 60.618 81.3667 63.3022C83.687 64.8262 85.6091 66.9216 86.925 69.398L99.8253 63.3888C97.6262 58.7304 94.0938 54.8166 89.6609 52.167Z" fill="white"/>
<path d="M29.5407 95.5998C31.0818 93.3485 33.2462 92.396 35.9648 92.6212C36.4497 92.6731 37.0211 92.6731 37.4367 92.4653C38.3371 92.015 38.4063 90.976 37.6791 90.0582C35.8782 87.7549 34.0601 85.469 32.3112 83.1484C31.9822 82.6808 31.7744 82.144 31.7051 81.5725C31.4108 79.2346 30.3026 77.4336 28.2766 76.2041C27.965 76.0136 27.5667 75.7711 27.2377 75.8058C25.6793 76.0136 25.3503 74.9052 24.8654 73.8662C22.5798 68.896 26.9953 60.8087 24.6923 55.8559L24.1901 54.7475L32.2593 54.3665C40.9691 53.9682 49.6789 53.5526 58.3887 53.1543C58.9774 53.137 59.5488 53.0158 60.0856 52.756C60.6224 52.5135 61.0899 52.1499 61.4709 51.6996C71.0984 41.2225 80.7606 30.7799 90.4228 20.3374C91.2712 19.4369 91.6175 18.4498 91.1154 17.3414C90.6132 16.2331 89.6262 15.8348 88.3968 15.9041C74.0594 16.6314 59.722 17.3414 45.3846 18.0515C44.9344 18.0515 44.4841 18.1554 44.0686 18.3459L44.0513 18.3632C43.6357 18.5537 43.2721 18.8308 42.9604 19.1771C33.2463 29.7062 23.5321 40.218 13.818 50.7298C13.0042 51.5957 12.6752 52.5828 13.1773 53.6565C13.6968 54.7648 14.6665 55.1805 15.8959 55.0939C17.2985 55.0073 18.701 54.99 20.0863 54.8861C20.6231 54.8514 20.9348 54.9553 21.1772 55.4749C23.965 61.5187 20.017 70.6971 22.8222 76.7236C22.9434 76.966 23.0127 77.3817 22.8741 77.5722C21.5235 79.581 22.5278 83.3389 24.3806 85.036C24.6923 85.3305 24.8828 85.7114 24.9693 86.1444C25.4542 89.0537 25.8871 91.9804 26.3026 94.9071C26.3546 95.2534 26.4239 95.5998 26.5451 95.8942L26.5797 95.9635C26.7702 96.3271 27.0645 96.6215 27.6186 96.7254C27.8957 96.7774 28.1208 96.7601 28.3286 96.7081L28.7268 96.5176C29.0558 96.3098 29.2983 95.9635 29.5407 95.5998Z" fill="white"/>
<path d="M87.0807 48.6862C85.6089 45.3785 84.0332 42.0189 82.5094 38.7632L82.4228 38.59C81.886 37.4471 81.3493 36.3041 80.8125 35.1611L79.6869 36.3561C78.5961 37.5336 77.5398 38.6593 76.5008 39.8023C75.41 40.9799 74.3364 42.1401 73.2455 43.3177L73.1935 43.387C70.0075 46.8332 66.7175 50.3833 63.4967 53.8988C62.908 54.5742 62.1981 55.111 61.3669 55.492C60.5531 55.873 59.6873 56.0808 58.7869 56.0981C50.7004 56.4618 42.4755 56.8601 34.389 57.2584C34.1466 57.2757 33.8696 57.2931 33.5925 57.3277L33.3328 57.345C33.3674 57.4143 33.402 57.5182 33.4367 57.6048C33.5059 57.8126 33.6098 58.055 33.6791 58.2282C34.2678 59.4751 34.8392 60.7219 35.428 61.9688L35.5319 62.1766C36.7266 64.7396 37.9734 67.4066 39.2028 70.0562C39.6357 71.0086 40.1898 71.7186 40.917 72.2382C41.0036 72.2901 41.0729 72.3594 41.1595 72.4113C41.8348 72.827 42.614 73.0867 43.5317 73.208C47.5143 73.6755 51.4104 73.6582 55.1852 73.1733C60.9513 72.4114 66.4404 70.5237 71.6178 67.5278C74.2844 65.9692 76.7779 64.1335 79.0463 62.0554C79.0116 62.0381 78.977 62.0208 78.9424 62.0035C80.8817 60.2024 82.6306 58.2282 84.1717 56.0808C85.3319 54.5049 86.3881 52.8251 87.3405 51.1107C87.479 50.3314 87.4617 49.5174 87.0807 48.6862Z" fill="white"/>
</svg>
