<?xml version="1.0" encoding="UTF-8"?>
<svg id="Layer_1" xmlns="http://www.w3.org/2000/svg" version="1.1" viewBox="0 0 577 23">
  <!-- Generator: Adobe Illustrator 29.0.1, SVG Export Plug-In . SVG Version: 2.1.0 Build 192)  -->
  <defs>
    <style>
      .st0 {
        fill: gold;
      }
    </style>
  </defs>
  <path class="st0" d="M2.7,22.3c-1.2,0-2.3-.9-2.5-2.2-.2-1.4.8-2.6,2.1-2.8C138.5-1.3,274-.6,412.4,1.9c49.5.9,97.6,4.3,138.2,7.6l2.6.2c7,.5,14.2,1.1,21.2,2.3,1.4.2,2.3,1.5,2.1,2.9s-1.5,2.3-2.9,2.1c-6.8-1.1-13.9-1.7-20.8-2.2l-2.6-.2c-40.5-3.2-88.5-6.6-137.8-7.6C274.1,4.4,138.8,3.7,3.1,22.3c-.1,0-.2,0-.3,0Z"/>
</svg>