<?xml version="1.0" encoding="UTF-8"?>
<svg id="Layer_1" xmlns="http://www.w3.org/2000/svg" version="1.1" viewBox="0 0 125 8">
  <!-- Generator: Adobe Illustrator 29.0.1, SVG Export Plug-In . SVG Version: 2.1.0 Build 192)  -->
  <defs>
    <style>
      .st0 {
        fill: #2563eb;
      }
    </style>
  </defs>
  <path class="st0" d="M122.8.5c-.6,0-1.3,0-1.9,0-1.3,0-2.6,0-3.9,0-26.9.5-54.3,1.5-80.8,2.5-11.4.4-22.8.8-34.2,1.2-.8,0-1.5.7-1.4,1.5,0,.8.7,1.5,1.5,1.5s0,0,0,0c11.4-.4,22.8-.8,34.2-1.2,26.5-1,53.8-1.9,80.7-2.5,1.3,0,2.5,0,3.8,0,.6,0,1.3,0,1.9,0s1.5-.7,1.5-1.5-.7-1.5-1.5-1.5Z"/>
</svg>