<?xml version="1.0" encoding="UTF-8"?>
<svg id="Layer_1" xmlns="http://www.w3.org/2000/svg" version="1.1" viewBox="0 0 311 10">
  <!-- Generator: Adobe Illustrator 29.0.1, SVG Export Plug-In . SVG Version: 2.1.0 Build 192)  -->
  <defs>
    <style>
      .st0 {
        fill: gold;
      }
    </style>
  </defs>
  <path class="st0" d="M2,9.4c-.8,0-1.5-.6-1.5-1.5,0-.8.6-1.5,1.5-1.5,20.4-.6,41.2-1.3,61.3-2C134.9,2,209-.6,281.8,1.8c8.3.3,17.8.6,27.1.6s1.5.7,1.5,1.5-.7,1.5-1.5,1.5c-9.4,0-18.9-.3-27.2-.6-72.7-2.3-146.7.2-218.3,2.6-20.1.7-40.9,1.4-61.3,2,0,0,0,0,0,0Z"/>
</svg>