<?xml version="1.0" encoding="UTF-8"?>
<svg id="Layer_1" xmlns="http://www.w3.org/2000/svg" version="1.1" viewBox="0 0 100 41">
  <!-- Generator: Adobe Illustrator 29.0.1, SVG Export Plug-In . SVG Version: 2.1.0 Build 192)  -->
  <defs>
    <style>
      .st0 {
        fill: gold;
      }
    </style>
  </defs>
  <path class="st0" d="M90,40.1h-6.1v-1h6.1c.6,0,1.2,0,1.7-.2l.2,1c-.6.1-1.3.2-1.9.2ZM75.9,40.1h-8v-1h8v1ZM59.9,40.1h-8v-1h8v1ZM43.9,40.1h-8v-1h8v1ZM27.9,40.1h-8v-1h8v1ZM11.9,40.1h-1.9c-2.2,0-4.3-.7-6-2l.6-.8c1.6,1.2,3.4,1.8,5.4,1.8h1.9v1ZM98.6,35.2l-.9-.5c.8-1.4,1.2-3,1.2-4.6v-2.9h1v2.9c0,1.8-.5,3.6-1.4,5.1ZM0,30.9c0-.3,0-.5,0-.8v-7.2h1v7.2c0,.2,0,.5,0,.7H0ZM100,19.2h-1v-8h1v8ZM1,14.9H0v-4.8c0-1.1.2-2.3.6-3.3l.9.3c-.3,1-.5,2-.5,3v4.8ZM96.7,4.1c-1.7-1.9-4.2-3-6.7-3V.1c2.8,0,5.6,1.2,7.5,3.3l-.7.7ZM6.6,1.8l-.4-.9c1.2-.5,2.5-.8,3.8-.8h8v1h-8c-1.2,0-2.3.2-3.4.7ZM82,1.1h-8V.1h8v1ZM66,1.1h-8V.1h8v1ZM50,1.1h-8V.1h8v1ZM34,1.1h-8V.1h8v1Z"/>
</svg>