<?xml version="1.0" encoding="UTF-8"?>
<svg id="Layer_1" xmlns="http://www.w3.org/2000/svg" version="1.1" viewBox="0 0 498 146">
  <!-- Generator: Adobe Illustrator 29.0.1, SVG Export Plug-In . SVG Version: 2.1.0 Build 192)  -->
  <defs>
    <style>
      .st0 {
        fill: #fff;
      }
    </style>
  </defs>
  <path class="st0" d="M110.2,130.5c0-3.4,2.7-5.7,6.8-5.7s6.1,2,6.4,5.5h-2.1c-.2-2.3-1.8-3.6-4.3-3.6s-4.7,1.5-4.7,3.8,1.1,2.9,3.2,3.5l3.5.8c3.2.8,4.8,2.6,4.8,5.4s-2.7,5.8-6.9,5.8-6.6-2.1-6.9-5.4h2.1c.1,2.1,2,3.5,4.8,3.5s4.9-1.5,4.9-3.8-1-3-3.2-3.5l-3.4-.8c-3.2-.8-4.9-2.6-4.9-5.4ZM130.7,127.1v-1.9h14.6v1.9h-6.3v18.5h-2v-18.5h-6.3ZM153.6,138.5v-13.3h2v13.2c0,3.6,2,5.5,5.5,5.5s5.4-2,5.4-5.5v-13.2h2v13.3c0,4.6-2.8,7.4-7.5,7.4s-7.5-2.8-7.5-7.4ZM185.4,145.6h-6.2v-20.3h6.1c6.1,0,10.2,4.1,10.2,10.2s-4.1,10.2-10.2,10.2ZM185.2,127.1h-4v16.6h4.1c5,0,8.2-3.2,8.2-8.3,0-5.1-3.2-8.3-8.2-8.3ZM217.1,145.6h-12.2v-20.3h12.2v1.9h-10.1v7.3h9.2v1.9h-9.2v7.4h10.1v1.9ZM229,145.6h-2v-20.3h2.1l11.2,16.9v-16.9h2v20.3h-2l-11.2-16.9v16.9h0ZM250.8,127.1v-1.9h14.6v1.9h-6.3v18.5h-2v-18.5h-6.3ZM289.5,125.3v18.5h9.3v1.9h-11.4v-20.3h2ZM324.7,135.4c0,6.2-4,10.5-9.7,10.5s-9.7-4.3-9.7-10.5,4-10.5,9.7-10.5,9.7,4.3,9.7,10.5ZM322.6,135.4c0-5.1-3.1-8.6-7.6-8.6s-7.6,3.5-7.6,8.6,3.1,8.6,7.6,8.6,7.6-3.5,7.6-8.6ZM333.3,145.6h-2.1l7.5-20.3h2.5l7.6,20.3h-2.1l-2-5.4h-9.4l-2,5.4ZM339.6,128.1l-3.8,10.3h8.1l-3.8-10.3c0-.3-.2-.6-.3-.8,0,.2-.1.6-.3.8ZM359.3,145.6h-2v-20.3h2.1l11.2,16.9v-16.9h2v20.3h-2l-11.2-16.9v16.9h0ZM381.8,130.5c0-3.4,2.7-5.7,6.8-5.7s6.1,2,6.4,5.5h-2.1c-.2-2.3-1.8-3.6-4.3-3.6s-4.7,1.5-4.7,3.8,1.1,2.9,3.2,3.5l3.5.8c3.2.8,4.8,2.6,4.8,5.4s-2.7,5.8-6.9,5.8-6.6-2.1-6.9-5.4h2.1c.1,2.1,2,3.5,4.8,3.5s4.9-1.5,4.9-3.8-1-3-3.2-3.5l-3.4-.8c-3.2-.8-4.9-2.6-4.9-5.4Z"/>
  <path class="st0" d="M128.1,67.6c-2.5.8-4.8,2.3-6.5,4.3v-3.7h-12.8v43.4h12.8c0,0,0-13.6,0-13.6-.1-3.7.1-7.4.6-11,.4-2,1.3-3.8,2.6-5.2,1.4-1.5,3.4-2.5,5.5-2.6,2.3-.3,4.6.3,6.6,1.5l3.6-11.8c-1.8-1.2-3.9-1.8-6-1.9-2.2-.3-4.4,0-6.5.7Z"/>
  <path class="st0" d="M179.1,73.8c-2.2-2.8-5.2-4.8-8.6-6-3-1.1-6.2-1.5-9.4-1.3-3.1.1-6.1.9-8.8,2.4-2.6,1.4-4.8,3.3-6.6,5.6-1.6,2.1-2.6,4.6-2.9,7.3l11.6,2.5c0-1.1.4-2.3.9-3.3.6-1,1.3-1.9,2.2-2.6,1-.6,2.1-1,3.3-1.1,1.1-.1,2.3,0,3.4.4,1.3.2,2.4.9,3.3,1.9.6.7.9,1.5.8,2.4,0,.3,0,.6-.2.8-.1.3-.3.5-.5.7-.3.2-.6.4-.9.4-.5.1-1,.2-1.8.3l-2.1.3c-.7.1-1.5.2-2.6.3-1.1.1-1.9.2-2.5.3-11.2,1.5-16.4,6.7-15.5,15.6.2,1.7.7,3.4,1.5,4.9.8,1.5,2,2.9,3.4,3.9,3.2,2.2,7.1,3.3,11,3.2,2.1,0,4.2-.4,6.1-1.2,1.9-.8,3.7-2,5.1-3.6l.3,3.5h12.8l-.3-28.8c0-3.3-1-6.4-3-9ZM167.8,99.6c-1.3,1.5-3,2.5-5,2.8-1.9.6-3.8.5-5.6-.3-.7-.3-1.2-.8-1.6-1.4-.4-.6-.5-1.4-.5-2.1,0-.7.1-1.5.6-2.1.5-.6,1.2-.9,2-1,.9-.2,1.9-.3,2.9-.4l4.1-.2c1.6,0,3.2-.2,4.8-.5.2,1.9-.4,3.8-1.6,5.2Z"/>
  <path class="st0" d="M221.2,47.9v22.5c-1.8-1.5-3.9-2.6-6.2-3.2-2.3-.6-4.7-.8-7-.4-5,.5-9.6,2.8-13,6.5-3.5,4-5.5,9-5.7,14.3-.3,3.7.1,7.4,1.3,10.9,1,3,2.6,5.8,4.9,8.1,2,2,4.3,3.6,6.8,4.8,2.3,1.1,4.8,1.7,7.4,1.7,5.1,0,9.1-1.5,12-4.6l.3,3.2h12.3c0,0-.2-63.9-.2-63.9h-12.9ZM219,97.7c-.9,1-1.9,1.8-3.1,2.3-1.2.5-2.5.8-3.8.8-1.3,0-2.6-.3-3.8-.8-1.2-.5-2.3-1.3-3.2-2.3-2-2.2-3.1-5-3-8,0-2.9.9-5.8,2.8-8.1.8-1,1.9-1.9,3.1-2.4,1.2-.6,2.5-.8,3.8-.8,1.3,0,2.6.2,3.9.8,1.2.5,2.3,1.3,3.2,2.3,1.8,2.3,2.8,5.1,2.6,8.1.2,2.9-.7,5.7-2.4,7.9Z"/>
  <path class="st0" d="M284.1,83.4c-.9-1-2-1.9-3.1-2.6-1.1-.7-2.2-1.2-3.4-1.7,2.3-1.2,4.3-2.8,5.8-4.9,1.7-2.6,2.5-5.7,2.3-8.8,0-2.3-.4-4.6-1.4-6.7-1-2.1-2.5-3.9-4.3-5.3-3.9-3-9-4.6-15.2-4.6h-23.5v62.8c0,0,25.6,0,25.6,0,3.3,0,6.5-.6,9.5-1.8,3.1-1.2,5.9-3.2,8.1-5.7,2.3-2.5,3.5-5.8,3.4-9.2,0-2.3-.3-4.6-.9-6.9-.5-1.7-1.5-3.4-2.8-4.7ZM255.8,60.9h9.7c.8,0,1.6,0,2.3.4.7.3,1.4.7,2,1.3.6.6,1,1.3,1.3,2.1.3.8.4,1.6.3,2.4,0,4.3-1.6,6.4-4.8,6.4h-7.1c-1.5.1-2.8.2-3.6.2v-12.7ZM271.7,97.5c-.4.6-1,1.1-1.7,1.5-.7.3-1.4.5-2.2.5-2.6,0-6.5,0-11.8.2v-13.7h10.6c4.4,0,6.6,2.1,6.6,6.5,0,1.8-.5,3.6-1.5,5.1Z"/>
  <path class="st0" d="M312.1,67.6c-2.5.8-4.8,2.3-6.5,4.3v-3.7h-12.8v43.4h12.8c0,0,0-13.6,0-13.6-.1-3.7,0-7.4.6-11,.4-2,1.3-3.8,2.6-5.2,1.4-1.5,3.4-2.5,5.5-2.6,2.3-.3,4.6.3,6.6,1.5l3.6-11.8c-1.8-1.2-3.8-1.8-6-1.9-2.2-.3-4.4,0-6.5.7Z"/>
  <path class="st0" d="M334.2,46.9c-1,0-2.1.2-3,.6-1,.4-1.9,1-2.6,1.7-.7.7-1.3,1.6-1.7,2.5-.4,1-.6,2-.6,3s.2,2,.6,3c.4,1,1,1.8,1.7,2.5.7.7,1.6,1.3,2.6,1.7,1,.4,2,.6,3,.6,1,0,2-.2,3-.6,1-.4,1.8-1,2.5-1.7.7-.7,1.3-1.6,1.7-2.5.4-1,.6-2,.6-3s-.2-2-.6-3c-.4-1-1-1.8-1.7-2.5-.7-.7-1.6-1.3-2.5-1.7-1-.3-2-.6-3-.5Z"/>
  <path class="st0" d="M341.1,67.6h-13.6v44.4h13.6v-44.4Z"/>
  <path class="st0" d="M380.9,47.9v22.5c-1.8-1.5-3.9-2.6-6.2-3.2-2.3-.6-4.7-.8-7-.4-5,.5-9.6,2.8-13,6.5-3.5,4-5.5,9-5.7,14.3-.3,3.7.1,7.4,1.3,10.9,1,3,2.6,5.8,4.9,8.1,2,2,4.3,3.6,6.8,4.8,2.3,1.1,4.8,1.7,7.4,1.7,5.1,0,9.1-1.5,12-4.6l.3,3.2h12.3c0,0-.2-63.9-.2-63.9h-12.9ZM378.7,97.7c-.9,1-1.9,1.8-3.1,2.3-1.2.5-2.5.8-3.8.8-1.3,0-2.6-.3-3.8-.8-1.2-.5-2.3-1.3-3.2-2.3-2-2.2-3.1-5-3-8,0-2.9.9-5.8,2.8-8.1.8-1,1.9-1.9,3.1-2.4,1.2-.6,2.5-.8,3.8-.8,1.3,0,2.6.2,3.9.8,1.2.5,2.3,1.3,3.2,2.3,1.7,2.3,2.6,5.1,2.6,8,0,2.9-.8,5.7-2.5,8h0Z"/>
  <path class="st0" d="M445.6,67.6h-12.4c0,0-.3,2.4-.3,2.4-3-2.2-6.5-3.5-10.2-3.7-3.5-.2-7,.5-10.1,2-3.2,1.7-5.9,4.1-7.9,7.2-2.2,3.3-3.5,7.1-3.8,11.1-.5,4.4.3,8.9,2.3,12.9,1.8,3.8,4.7,6.9,8.4,9,3.4,2,7.3,3,11.2,2.9,3.5,0,7-1.3,9.7-3.5,0,3-1.1,5.9-2.9,8.3-.8,1-1.9,1.7-3.1,2.2-1.2.5-2.5.7-3.7.7-3.6,0-6.5-2.1-8.6-6.3l-12.9,2.7c1.7,4.9,5,9.1,9.2,12,4,2.8,8.9,4.1,13.8,3.7,6-.2,11.7-2.8,15.8-7.1,4-4.5,6-10.4,5.8-16.4,0-1.5,0-7.2-.1-17-.1-9.8,0-17.5,0-23.1ZM429.8,96.3c-.9.9-2.1,1.7-3.3,2.1-1.2.5-2.6.7-3.9.6-1.2,0-2.4-.3-3.5-.8-1.1-.5-2-1.3-2.8-2.2-1.7-2-2.7-4.6-2.6-7.3,0-2.5.7-4.9,2.3-6.8,1.5-1.8,3.7-2.9,6-3.2,1.3-.2,2.7-.1,4,.3,1.3.4,2.4,1.1,3.4,2,1,1,1.8,2.2,2.3,3.5.5,1.3.7,2.7.7,4.2.2,2.8-.7,5.5-2.5,7.5Z"/>
  <path class="st0" d="M492.8,73.9c-4-4.8-9.6-7.3-16.9-7.2-3.1-.1-6.2.4-9.1,1.5-2.9,1.1-5.5,2.8-7.8,4.9-2.2,2.2-3.8,4.8-5,7.7-1.1,2.9-1.6,5.9-1.5,9,0,3,.5,6.1,1.6,8.9,1.1,2.8,2.9,5.4,5.1,7.5,2.2,2.1,4.9,3.8,7.8,5,2.9,1.1,6,1.6,9.1,1.5,4.9.2,9.8-1.3,13.8-4.2,3.2-2.2,5.7-5.3,7.2-9l-12-3.9c-.7,1.9-2.1,3.5-3.9,4.6-1.8,1.1-3.8,1.5-5.9,1.2-2.3,0-4.5-.9-6.2-2.4-1.6-1.3-2.7-3.1-3.1-5.1l31.7-.3c.7-8.2-.9-14.7-4.9-19.6ZM466.1,83.7c.5-1.7,1.5-3.3,3-4.3,1.5-1.2,3.3-1.9,5.2-2,2.3-.2,4.6.3,6.6,1.6.9.5,1.6,1.1,2.2,2,.6.8,1,1.7,1.1,2.7h-18.1Z"/>
  <path class="st0" d="M73.5,89h14.8c-.1,1.7-.7,3.3-1.5,4.7-.8,1.4-2,2.6-3.4,3.6-3.3,2.2-7.2,3.4-11.2,3.2-2.5.1-4.9-.4-7.2-1.4-2.3-1-4.2-2.5-5.8-4.4-2.3-2.7-3.7-6.1-4.3-10.3l-13.4,6.3c.3,1,.6,1.9,1,2.9,1.6,4,4,7.6,7.1,10.6,6.2,6.1,14.1,9.1,23.6,9.1,4.4,0,8.7-.7,12.8-2.3,3.4-1.3,6.6-3.3,9.1-6,2.3-2.4,4-5.2,5.2-8.2,1.2-3,1.8-6.2,1.8-9.4v-11.1h-28.5v12.7Z"/>
  <path class="st0" d="M87,69.6l13.5-4.7c-.2-.5-.4-1-.6-1.5l-12.9,6c0,0,0,.1,0,.2Z"/>
  <path class="st0" d="M54.4,79c0-1.1,0-2.1.2-3.2-1.7.2-3.5.3-5.3.3s-4-.1-6.1-.4c-1-.1-1.8-.3-2.6-.7-.3,2-.5,3.9-.5,5.9-.1,3.3.3,6.6,1.2,9.7l13.4-6.3c-.2-1.7-.4-3.5-.4-5.4Z"/>
  <path class="st0" d="M89.7,52.2c-.2.7-.5,1.4-1,2.1-2,3.3-4.5,6.4-7.3,9.1,2.3,1.5,4.2,3.6,5.6,6.1l12.9-6c-2.2-4.7-5.7-8.6-10.2-11.2Z"/>
  <path class="st0" d="M29.5,95.6c1.5-2.3,3.7-3.2,6.4-3,.5,0,1.1,0,1.5-.2.9-.5,1-1.5.2-2.4-1.8-2.3-3.6-4.6-5.4-6.9-.3-.5-.5-1-.6-1.6-.3-2.3-1.4-4.1-3.4-5.4-.3-.2-.7-.4-1-.4-1.6.2-1.9-.9-2.4-1.9-2.3-5,2.1-13.1-.2-18l-.5-1.1,8.1-.4c8.7-.4,17.4-.8,26.1-1.2.6,0,1.2-.1,1.7-.4.5-.2,1-.6,1.4-1.1,9.6-10.5,19.3-20.9,29-31.4.8-.9,1.2-1.9.7-3-.5-1.1-1.5-1.5-2.7-1.4-14.3.7-28.7,1.4-43,2.1-.5,0-.9.1-1.3.3h0c-.4.2-.8.5-1.1.8-9.7,10.5-19.4,21-29.1,31.6-.8.9-1.1,1.9-.6,2.9.5,1.1,1.5,1.5,2.7,1.4,1.4,0,2.8-.1,4.2-.2.5,0,.8,0,1.1.6,2.8,6-1.2,15.2,1.6,21.2.1.2.2.7,0,.8-1.4,2-.3,5.8,1.5,7.5.3.3.5.7.6,1.1.5,2.9.9,5.8,1.3,8.8,0,.3.1.7.2,1h0c.2.4.5.7,1,.8.3,0,.5,0,.7,0l.4-.2c.3-.2.6-.6.8-.9Z"/>
  <path class="st0" d="M87.1,48.7c-1.5-3.3-3-6.7-4.6-9.9v-.2c-.6-1.1-1.2-2.3-1.7-3.4l-1.1,1.2c-1.1,1.2-2.1,2.3-3.2,3.4-1.1,1.2-2.2,2.3-3.3,3.5h0c-3.2,3.5-6.5,7.1-9.7,10.6-.6.7-1.3,1.2-2.1,1.6-.8.4-1.7.6-2.6.6-8.1.4-16.3.8-24.4,1.2-.2,0-.5,0-.8,0h-.3c0,0,0,.2.1.3,0,.2.2.5.2.6.6,1.2,1.2,2.5,1.7,3.7v.2c1.3,2.6,2.5,5.2,3.8,7.9.4,1,1,1.7,1.7,2.2,0,0,.2.1.2.2.7.4,1.5.7,2.4.8,4,.5,7.9.5,11.7,0,5.8-.8,11.3-2.6,16.4-5.6,2.7-1.6,5.2-3.4,7.4-5.5,0,0,0,0-.1,0,1.9-1.8,3.7-3.8,5.2-5.9,1.2-1.6,2.2-3.3,3.2-5,.1-.8.1-1.6-.3-2.4Z"/>
</svg>