<?xml version="1.0" encoding="UTF-8"?>
<svg id="Layer_1" xmlns="http://www.w3.org/2000/svg" version="1.1" viewBox="0 0 113 7">
  <!-- Generator: Adobe Illustrator 29.0.1, SVG Export Plug-In . SVG Version: 2.1.0 Build 192)  -->
  <defs>
    <style>
      .st0 {
        fill: #2563eb;
      }
    </style>
  </defs>
  <path class="st0" d="M110.8,1.1c-2.7-.2-5.2-.1-7.8,0h-1.3c-25.5.5-51.4,1.3-76.5,2-7.7.2-15.4.5-23.2.7-.8,0-1.5.7-1.5,1.5,0,.8.7,1.5,1.5,1.5s0,0,0,0c7.7-.2,15.4-.5,23.2-.7,25.1-.8,51-1.6,76.5-2h1.4c2.7,0,5-.1,7.5,0,.8,0,1.5-.6,1.6-1.4,0-.8-.6-1.5-1.4-1.6Z"/>
</svg>