<?xml version="1.0" encoding="UTF-8"?>
<svg id="Layer_1" xmlns="http://www.w3.org/2000/svg" version="1.1" viewBox="0 0 140 40">
  <!-- Generator: Adobe Illustrator 29.0.1, SVG Export Plug-In . SVG Version: 2.1.0 Build 192)  -->
  <defs>
    <style>
      .st0 {
        fill: #2563eb;
      }
    </style>
  </defs>
  <path class="st0" d="M123.9,40h-8v-1h8v1ZM107.9,40h-8v-1h8v1ZM91.9,40h-8v-1h8v1ZM75.9,40h-8v-1h8v1ZM59.9,40h-8v-1h8v1ZM43.9,40h-8v-1h8v1ZM27.9,40h-8v-1h8v1ZM11.9,40h-1.9c-2.2,0-4.3-.7-6-2l.6-.8c1.6,1.2,3.4,1.8,5.4,1.8h1.9v1ZM131.9,39.8l-.2-1c2.5-.5,4.7-2,6-4.3l.9.5c-1.5,2.5-3.9,4.2-6.7,4.7ZM0,30.8c0-.3,0-.5,0-.8v-7.2h1v7.2c0,.2,0,.5,0,.7H0ZM140,27.1h-1v-8h1v8ZM1,14.8H0v-4.8c0-1.1.2-2.3.6-3.3l.9.3c-.3,1-.5,2-.5,3v4.8ZM140,11.1h-1v-1.1c0-2.2-.8-4.3-2.3-6l.7-.7c1.6,1.8,2.5,4.2,2.5,6.7v1.1ZM6.6,1.7l-.4-.9C7.4.3,8.7,0,10,0h8v1h-8c-1.2,0-2.3.2-3.4.7ZM130,1h-8V0h8v1ZM114,1h-8V0h8v1ZM98,1h-8V0h8v1ZM82,1h-8V0h8v1ZM66,1h-8V0h8v1ZM50,1h-8V0h8v1ZM34,1h-8V0h8v1Z"/>
</svg>