<svg width="46" height="47" viewBox="0 0 46 47" fill="none" xmlns="http://www.w3.org/2000/svg">
<path d="M40.8399 7.91804C36.8573 3.08642 31.2124 0.661953 23.9052 0.679271C20.823 0.540729 17.7235 1.04294 14.8317 2.13395C11.94 3.22496 9.29073 4.88745 7.05701 7.01752C4.89254 9.21686 3.2129 11.8318 2.1047 14.6892C0.996489 17.564 0.494333 20.6292 0.632859 23.7117C0.546281 26.7596 1.08306 29.7902 2.2259 32.5957C3.36873 35.4184 5.1003 37.9641 7.28208 40.0769C9.49849 42.2243 12.1478 43.9214 15.0395 45.0297C17.9313 46.138 21.0135 46.6576 24.113 46.5537C29.048 46.7268 33.9137 45.2722 37.9309 42.3801C41.1689 40.1808 43.6624 37.0463 45.0996 33.4096L33.0825 29.5304C32.3379 31.4354 30.9873 33.0459 29.2211 34.1023C27.4549 35.1587 25.3943 35.5916 23.3684 35.3318C21.0827 35.2626 18.8836 34.414 17.1347 32.942C15.5071 31.6778 14.4162 29.8595 14.0699 27.8333L45.723 27.487C46.4156 19.2784 44.7879 12.767 40.8399 7.91804ZM14.0872 17.7198C14.572 15.9707 15.6283 14.4468 17.0828 13.3731C18.5719 12.2128 20.3901 11.5201 22.2948 11.4162C24.6151 11.2084 26.9354 11.7625 28.9094 13.0094C29.7752 13.4943 30.5025 14.1524 31.0739 14.9663C31.6453 15.7629 32.0263 16.6981 32.1994 17.6679L14.0872 17.7198Z" fill="white"/>
</svg>
