<svg width="287" height="22" viewBox="0 0 287 22" fill="none" xmlns="http://www.w3.org/2000/svg">
<path d="M1.19726 6.54665C1.19726 3.13508 3.93314 0.883789 8.01964 0.883789C11.6906 0.883789 14.0975 2.92727 14.4091 6.33884H12.3313C12.1062 4.0356 10.5477 2.73678 7.98501 2.73678C5.1106 2.73678 3.24051 4.20877 3.24051 6.51202C3.24051 8.29573 4.29676 9.4387 6.4266 9.97554L9.92437 10.8241C13.1105 11.5861 14.7555 13.4044 14.7555 16.1752C14.7555 19.6907 12.0196 21.942 7.82918 21.942C3.88119 21.942 1.21457 19.8639 0.954834 16.5389H3.05003C3.17124 18.669 5.04135 20.0544 7.82918 20.0544C10.8075 20.0544 12.7122 18.5997 12.7122 16.2792C12.7122 14.4608 11.6906 13.2659 9.5088 12.7637L6.06297 11.9151C2.87688 11.1531 1.19726 9.33479 1.19726 6.54665ZM21.7164 3.13508V1.26478H36.2962V3.13508H30.0106V21.613H27.9674V3.13508H21.7164ZM44.6424 14.5301V1.26478H46.6856V14.4435C46.6856 18.0282 48.6423 19.9505 52.192 19.9505C55.6552 19.9505 57.6119 17.959 57.6119 14.4435V1.26478H59.6551V14.5301C59.6551 19.1366 56.8153 21.942 52.1747 21.942C47.4822 21.942 44.6424 19.1539 44.6424 14.5301ZM76.3648 21.613H70.1657V1.26478H76.2955C82.4426 1.26478 86.5291 5.35174 86.5291 11.4475C86.5291 17.5433 82.4772 21.613 76.3648 21.613ZM76.2262 3.13508H72.2263V19.7254H76.2955C81.2651 19.7254 84.4512 16.487 84.4512 11.4302C84.4339 6.33885 81.2651 3.13508 76.2262 3.13508ZM108.104 21.613H95.9142V1.26478H108.07V3.13508H97.9575V10.4604H107.135V12.3134H97.9575V19.7254H108.104V21.613ZM120 21.613H117.957V1.26478H120.035L131.238 18.2014V1.26478H133.247V21.613H131.238L120.018 4.67635V21.613H120ZM141.766 3.13508V1.26478H156.346V3.13508H150.06V21.613H148.017V3.13508H141.766ZM180.45 1.26478V19.7427H189.8V21.613H178.406V1.26478H180.45ZM215.67 11.4302C215.67 17.5953 211.67 21.942 205.973 21.942C200.259 21.942 196.276 17.5953 196.276 11.4302C196.276 5.26515 200.276 0.883789 205.973 0.883789C211.687 0.883789 215.67 5.23052 215.67 11.4302ZM213.575 11.4302C213.575 6.33885 210.475 2.87532 205.99 2.87532C201.505 2.87532 198.423 6.33885 198.423 11.4302C198.423 16.5216 201.488 19.9851 205.99 19.9851C210.475 19.9851 213.575 16.487 213.575 11.4302ZM224.258 21.613H222.18L229.661 1.26478H232.189L239.756 21.613H237.626L235.635 16.2099H226.25L224.258 21.613ZM230.648 4.12219L226.873 14.4089H234.977L231.167 4.12219C231.081 3.8451 230.942 3.49875 230.908 3.29094C230.873 3.48144 230.769 3.8451 230.648 4.12219ZM250.301 21.613H248.258V1.26478H250.336L261.539 18.2014V1.26478H263.565V21.613H261.539L250.318 4.67635V21.613H250.301ZM272.76 6.54665C272.76 3.13508 275.496 0.883789 279.582 0.883789C283.253 0.883789 285.66 2.92727 285.972 6.33884H283.894C283.669 4.0356 282.11 2.73678 279.547 2.73678C276.673 2.73678 274.803 4.20877 274.803 6.51202C274.803 8.29573 275.859 9.4387 277.989 9.97554L281.487 10.8241C284.673 11.5861 286.318 13.4044 286.318 16.1752C286.318 19.6907 283.582 21.942 279.392 21.942C275.444 21.942 272.777 19.8639 272.517 16.5389H274.63C274.734 18.669 276.621 20.0544 279.409 20.0544C282.387 20.0544 284.292 18.5997 284.292 16.2792C284.292 14.4608 283.27 13.2659 281.089 12.7637L277.643 11.9151C274.439 11.1531 272.76 9.33479 272.76 6.54665Z" fill="white"/>
</svg>
