<svg width="46" height="67" viewBox="0 0 46 67" fill="none" xmlns="http://www.w3.org/2000/svg">
<path d="M32.8766 0.906901L32.9458 23.4371C31.093 21.9478 28.9632 20.8741 26.6775 20.2507C24.3919 19.6273 22.0023 19.4887 19.6473 19.8524C14.6431 20.3373 10.0025 22.6578 6.64325 26.3811C3.16279 30.3469 1.15415 35.4036 0.980997 40.6855C0.669314 44.3741 1.1022 48.0974 2.29699 51.5956C3.26667 54.6435 4.92899 57.4143 7.16272 59.7002C9.13671 61.6744 11.457 63.285 13.9851 64.4799C16.2881 65.5709 18.8162 66.1597 21.3789 66.177C26.487 66.177 30.487 64.6358 33.3441 61.5705L33.6904 64.7223L45.9672 64.8089L45.7941 0.820312L32.8766 0.906901ZM30.6601 50.7297C29.7944 51.7168 28.7208 52.4961 27.526 53.0503C26.3312 53.5871 25.0325 53.8815 23.7165 53.8988C22.4005 53.9161 21.1019 53.6391 19.8898 53.1195C18.6777 52.6 17.6041 51.8207 16.721 50.8509C14.7297 48.6862 13.6561 45.8288 13.7254 42.8848C13.6388 39.9408 14.6431 37.0661 16.5305 34.8148C17.3617 33.7758 18.4179 32.9618 19.6127 32.4077C20.8075 31.8535 22.1235 31.5764 23.4395 31.6284C24.7728 31.5937 26.0888 31.8535 27.3009 32.3903C28.513 32.9272 29.6039 33.7238 30.4697 34.7282C32.132 37.0488 33.0497 39.8369 33.067 42.7117C33.0843 45.5691 32.2185 48.3745 30.5909 50.7297H30.6601Z" fill="white"/>
</svg>
