<svg width="47" height="64" viewBox="0 0 47 64" fill="none" xmlns="http://www.w3.org/2000/svg">
<path d="M43.0643 35.3909C42.1292 34.4038 41.0903 33.538 39.9474 32.7933C38.8739 32.1352 37.7483 31.5464 36.5882 31.0442C38.8739 29.8666 40.8652 28.2041 42.4236 26.1606C44.1032 23.563 44.8997 20.4805 44.6746 17.3806C44.7266 15.0774 44.2417 12.7741 43.2374 10.696C42.2331 8.6179 40.744 6.79955 38.8912 5.41414C35.0125 2.36624 29.939 0.842285 23.688 0.842285H0.155915L0.0693359 63.6533H25.7312C28.9866 63.6533 32.2073 63.0472 35.2376 61.8523C38.3717 60.64 41.1595 58.6831 43.3413 56.1375C45.6097 53.6091 46.8391 50.3187 46.7871 46.9245C46.8218 44.6039 46.5101 42.2834 45.8521 40.0667C45.3326 38.3176 44.3629 36.7071 43.0643 35.3909ZM14.8223 12.878H24.5365C25.333 12.8434 26.1122 12.9646 26.8568 13.2417C27.6013 13.5188 28.2767 13.9517 28.8481 14.5059C29.4022 15.112 29.8351 15.8047 30.1121 16.584C30.3892 17.3633 30.4931 18.1772 30.4411 18.9912C30.4411 23.2513 28.8481 25.3814 25.662 25.3814H22.6663L18.5279 25.5199C17.0388 25.5199 15.7574 25.6065 14.9089 25.6065L14.8223 12.878ZM30.7355 49.5394C30.3026 50.1629 29.7139 50.6651 29.0385 51.0114C28.3632 51.3578 27.6187 51.531 26.8568 51.5136C24.2421 51.5136 20.3287 51.5136 15.0821 51.6868V37.954L25.662 37.8674C30.0429 37.8674 32.2419 40.0494 32.2419 44.4307C32.3112 46.2491 31.7917 48.0501 30.7355 49.5394Z" fill="white"/>
</svg>
