<svg width="17" height="17" viewBox="0 0 17 17" fill="none" xmlns="http://www.w3.org/2000/svg">
<path d="M8.22793 0.867783C7.18898 0.850465 6.15004 1.04096 5.18036 1.42195C4.21068 1.80294 3.32758 2.39173 2.58301 3.11907C1.85575 3.84641 1.28434 4.69498 0.886079 5.64745C0.487818 6.59992 0.280029 7.60434 0.280029 8.62608C0.280029 9.64782 0.487818 10.6696 0.886079 11.6047C1.28434 12.5572 1.85575 13.4057 2.58301 14.1331C3.32758 14.8777 4.19337 15.4492 5.18036 15.8302C6.15004 16.2112 7.18898 16.4017 8.22793 16.3844C9.24955 16.4017 10.2712 16.2112 11.2236 15.8129C12.1759 15.4319 13.0417 14.8431 13.769 14.1158C14.4962 13.3884 15.085 12.5399 15.4659 11.5874C15.8642 10.6349 16.0546 9.6305 16.0546 8.60876C16.0546 7.58702 15.8469 6.56528 15.4659 5.63013C15.0676 4.67766 14.4962 3.8291 13.769 3.10176C13.0417 2.37442 12.1759 1.80294 11.2236 1.40463C10.2712 1.05828 9.24955 0.850465 8.22793 0.867783Z" fill="white"/>
</svg>
