<svg width="46" height="66" viewBox="0 0 46 66" fill="none" xmlns="http://www.w3.org/2000/svg">
<path d="M45.6199 1.59709L33.1699 1.52782L32.9101 4.00424C29.9318 1.78759 26.3821 0.488765 22.6765 0.298271C19.1788 0.0558241 15.6637 0.74853 12.5295 2.30712C9.32611 3.96961 6.60756 6.44603 4.63357 9.47661C2.41716 12.7843 1.11845 16.6115 0.841403 20.5772C0.391194 25.0105 1.18773 29.4785 3.10978 33.4962C4.91061 37.2887 7.83695 40.4232 11.4906 42.4667C14.8845 44.4409 18.7459 45.4453 22.6765 45.3761C26.2089 45.3414 29.6375 44.1119 32.3907 41.8952C32.3214 44.8912 31.2998 47.7832 29.4816 50.173C28.6332 51.1428 27.5942 51.9048 26.3994 52.407C25.222 52.9092 23.9406 53.1343 22.6592 53.0824C19.0749 53.0824 16.2005 50.987 14.036 46.7788L1.15309 49.4976C2.88467 54.3639 6.10538 58.5548 10.365 61.4641C14.3996 64.2523 19.2827 65.5511 24.183 65.1355C30.1742 64.9277 35.8365 62.382 39.9749 58.0526C43.9402 53.55 46.0181 47.6793 45.7584 41.6701C45.7584 40.1808 45.7584 34.4833 45.6372 24.6988C45.516 14.9144 45.5506 7.24264 45.6199 1.59709ZM29.8452 30.3097C28.9102 31.2449 27.7847 31.9722 26.5552 32.4571C25.3258 32.942 23.9925 33.1498 22.6765 33.0805C21.4644 33.0805 20.287 32.8208 19.1961 32.3012C18.1052 31.7817 17.1528 31.0197 16.3909 30.0846C14.6594 28.0584 13.7243 25.4608 13.7936 22.7939C13.707 20.3348 14.5035 17.9103 16.0619 16.0054C17.5684 14.2216 19.7156 13.0614 22.0359 12.8016C23.3692 12.5765 24.7198 12.6631 26.0012 13.0614C27.2825 13.4597 28.4427 14.1524 29.4123 15.1048C30.4166 16.1093 31.2132 17.3042 31.7153 18.6376C32.2348 19.9538 32.4599 21.3738 32.3907 22.7939C32.5811 25.5474 31.6634 28.2489 29.8452 30.3097Z" fill="white"/>
</svg>
