<svg width="41" height="47" viewBox="0 0 41 47" fill="none" xmlns="http://www.w3.org/2000/svg">
<path d="M37.0966 7.83154C34.8629 5.06072 31.8846 2.9826 28.508 1.85696C25.5124 0.765949 22.309 0.315689 19.1229 0.540819C16.0407 0.644724 13.0278 1.47597 10.3265 2.9826C7.7465 4.36802 5.49545 6.29027 3.71193 8.61083C2.08426 10.7236 1.09726 13.252 0.85484 15.9016L12.4564 18.3607C12.5083 17.2177 12.82 16.092 13.3741 15.0703C13.9282 14.0659 14.6901 13.1827 15.6078 12.5073C16.5948 11.9185 17.703 11.5375 18.8632 11.4163C20.006 11.2951 21.1662 11.4163 22.2744 11.78C23.5557 12.0224 24.7159 12.6805 25.5644 13.6503C26.1358 14.3083 26.4475 15.1742 26.4128 16.0401C26.3955 16.3345 26.3263 16.6116 26.2051 16.8713C26.0838 17.1311 25.8934 17.3562 25.6856 17.5467C25.4085 17.7719 25.0968 17.9104 24.7505 17.9624C24.3003 18.0836 23.7116 18.1875 22.967 18.3087L20.8199 18.6551C20.1272 18.759 19.3307 18.8802 18.2571 19.0014C17.2009 19.1226 16.4044 19.2265 15.781 19.3304C4.5604 20.8198 -0.616996 26.015 0.24879 34.9509C0.421947 36.6827 0.941423 38.3625 1.78989 39.8865C2.63836 41.4104 3.78119 42.7439 5.14914 43.8176C8.35254 46.0515 12.2139 47.1599 16.11 46.9694C18.2052 47.004 20.2831 46.6057 22.2224 45.7918C24.1618 44.9778 25.8761 43.7483 27.2959 42.207L27.5557 45.7052H40.3347L40.0749 16.8713C40.1615 13.5983 39.1053 10.4292 37.0966 7.83154ZM25.8068 33.6348C24.5427 35.1241 22.7939 36.1112 20.8545 36.4056C19.0017 36.9598 17.0277 36.8732 15.2269 36.1459C14.5689 35.8341 14.0148 35.3493 13.6512 34.7085C13.2875 34.0851 13.1144 33.3577 13.1663 32.6304C13.1144 31.903 13.3048 31.1584 13.7204 30.5523C14.2226 29.9808 14.9152 29.6171 15.6771 29.5132C16.6121 29.3054 17.5645 29.1842 18.5342 29.1322L22.5861 28.9071C24.1964 28.8378 25.8068 28.682 27.3998 28.4395C27.573 30.3445 27.0016 32.1974 25.8068 33.6348Z" fill="white"/>
</svg>
