<svg width="46" height="67" viewBox="0 0 46 67" fill="none" xmlns="http://www.w3.org/2000/svg">
<path d="M32.191 0.906901L32.2776 23.4371C30.4248 21.9478 28.295 20.8568 25.992 20.2507C23.689 19.6446 21.2994 19.4887 18.9618 19.8524C13.9749 20.3373 9.33428 22.6578 5.95771 26.3811C2.45994 30.3469 0.451308 35.4036 0.27815 40.6855C-0.0335325 44.3741 0.416689 48.0974 1.61147 51.5956C2.58115 54.6435 4.24346 57.4143 6.47719 59.7002C8.45118 61.6744 10.7542 63.3023 13.2996 64.4799C15.6026 65.5709 18.1133 66.1597 20.6761 66.177C25.8015 66.177 29.7841 64.6358 32.6412 61.5705L32.9875 64.7223L45.2644 64.8089L45.1085 0.820312L32.191 0.906901ZM29.9746 50.7297C29.1088 51.7168 28.0352 52.4961 26.8405 53.0503C25.6457 53.5871 24.347 53.8815 23.031 53.8988C21.715 53.9161 20.4163 53.6391 19.2042 53.1195C17.9921 52.6 16.9186 51.8207 16.0355 50.8509C14.0268 48.6862 12.9533 45.8288 13.0398 42.8848C12.9533 39.9408 13.9576 37.0661 15.845 34.8148C16.6761 33.7758 17.7151 32.9445 18.9272 32.3903C20.122 31.8362 21.438 31.5591 22.754 31.6111C24.0873 31.5764 25.4033 31.8362 26.6154 32.373C27.8275 32.9099 28.9184 33.7065 29.7841 34.7109C31.6023 36.9968 32.5373 39.8542 32.3815 42.7809C32.572 45.6383 31.7062 48.4438 29.9746 50.7297Z" fill="white"/>
</svg>
