<?xml version="1.0" encoding="UTF-8"?>
<svg id="Layer_1" xmlns="http://www.w3.org/2000/svg" version="1.1" viewBox="0 0 154 40">
  <!-- Generator: Adobe Illustrator 29.0.1, SVG Export Plug-In . SVG Version: 2.1.0 Build 192)  -->
  <defs>
    <style>
      .st0 {
        fill: #2563eb;
      }
    </style>
  </defs>
  <rect class="st0" x="30.4" y="39" width="8" height="1"/>
  <rect class="st0" x="42.5" width="8" height="1"/>
  <rect class="st0" x="58.5" width="8" height="1"/>
  <rect class="st0" x="62.4" y="39" width="8" height="1"/>
  <rect class="st0" x="46.4" y="39" width="8" height="1"/>
  <rect class="st0" x="26.5" width="8" height="1"/>
  <rect class="st0" x="14.4" y="39" width="8" height="1"/>
  <path class="st0" d="M5.4,2.6l-.6-.8C2.5,3.4.9,5.9.6,8.7h1c.3-2.4,1.7-4.7,3.8-6.1Z"/>
  <rect class="st0" x=".5" y="16.8" width="1" height="8"/>
  <rect class="st0" x="10.5" width="8" height="1"/>
  <rect class="st0" x="74.5" width="8" height="1"/>
  <path class="st0" d="M1.9,32.6l-1,.3c.8,2.7,2.8,5,5.4,6.2l.4-.9c-2.3-1.1-4.1-3.1-4.8-5.6Z"/>
  <path class="st0" d="M146.3,1.4l.3-1c-1-.3-2-.5-3.1-.5h-5v1h5c1,0,1.9.1,2.8.4Z"/>
  <rect class="st0" x="126.4" y="39" width="8" height="1"/>
  <path class="st0" d="M143.5,39h-1.1v1h1.1c2.4,0,4.8-.9,6.6-2.5l-.7-.8c-1.6,1.4-3.8,2.2-5.9,2.2Z"/>
  <polygon class="st0" points="152.5 30.1 153.5 30 153.5 22.1 152.5 22.1 152.5 30.1"/>
  <path class="st0" d="M152.7,6l-.9.4c.5,1.1.8,2.4.8,3.6v4.1h1v-4.1c0-1.4-.3-2.7-.8-4Z"/>
  <rect class="st0" x="110.4" y="39" width="8" height="1"/>
  <rect class="st0" x="90.5" width="8" height="1"/>
  <rect class="st0" x="94.4" y="39" width="8" height="1"/>
  <rect class="st0" x="122.5" width="8" height="1"/>
  <rect class="st0" x="106.5" width="8" height="1"/>
  <rect class="st0" x="78.4" y="39" width="8" height="1"/>
</svg>